<?xml version="1.0" encoding="UTF-8"?>
<svg width="315px" height="547px" viewBox="0 0 315 547" version="1.1" xmlns="http://www.w3.org/2000/svg" xmlns:xlink="http://www.w3.org/1999/xlink">
    <!-- Generator: Sketch 3.8.1 (29687) - http://www.bohemiancoding.com/sketch -->
    <title>assador, de cima</title>
    <desc>Created with Sketch.</desc>
    <defs></defs>
    <g id="IMAGENS-SCROL-HORIZONTAL" stroke="none" stroke-width="1" fill="none" fill-rule="evenodd">
        <g id="banheira_-heaven-" transform="translate(-3133.000000, -241.000000)">
            <g id="assador,-de-cima" transform="translate(3290.500000, 514.500000) rotate(90.000000) translate(-3290.500000, -514.500000) translate(3017.500000, 357.000000)">
                <path d="M44.6716124,91.7551016 C46.3549545,86.5020948 41.2775054,81.5868413 36.0313002,83.3742062 L10.504831,92.0718763 C8.19920087,92.8585686 6.49687373,94.8053698 6.04967007,97.1906209 C3.22300544,112.3077 -5.93201285,168.878219 5.89146123,213.520385 C6.442028,215.597253 8.0072408,217.262942 10.0302045,218.020265 L35.5187036,227.554976 C40.8471774,229.547929 46.0912731,224.511001 44.3172246,219.130025 C36.9172698,196.680974 26.3721231,148.816516 44.6716124,91.7551016 Z" id="Fill-1" fill="#FD5F02"></path>
                <polygon id="Fill-3" fill="#FD5F02" points="437 263.883107 394 283 394 20 437 39.0326314"></polygon>
                <polygon id="Fill-5" fill="#FD5F02" points="152 280 109 263.860109 109 38.8103655 152 22"></polygon>
                <path d="M501.328391,92.7551016 C499.64503,87.5020948 504.722538,82.5868413 509.968804,84.3742062 L535.49557,93.0718763 C537.801227,93.8585686 539.503574,95.8053698 539.950783,98.1906209 C542.77748,113.3077 551.932605,169.878219 540.106884,214.520385 C539.55842,216.597253 537.993189,218.262942 535.970202,219.020265 L510.481407,228.554976 C505.152871,230.547929 499.908714,225.511001 501.682783,220.130025 C509.082824,197.680974 519.628093,149.816516 501.328391,92.7551016 Z" id="Fill-7" fill="#FD5F02"></path>
                <g id="Page-1" transform="translate(204.000000, 0.000000)" fill="#FD5F02">
                    <polygon points="35.8487206 0.617003929 0 3.7125442 0 311.458261 42.8906029 314.999381 42.9993676 0"></polygon>
                </g>
                <g id="Page-1" transform="translate(298.000000, 0.000000)">
                    <polygon id="Fill-1" fill="#7911FF" points="0.108185507 315 42.3765623 311.45888 42.3765623 3.71316306 7.04738841 0.61762279 -0.000249275362 0"></polygon>
                    <polygon id="Fill-2" fill="#7911FF" points="0.107936232 314.999938 42.3769362 311.458818 42.3769362 3.71310118 7.04776232 0.617560904 0.000124637681 0.00055697446"></polygon>
                    <polygon id="Fill-3" fill="#FD5F02" points="0.107936232 314.999938 42.3769362 311.458818 42.3769362 3.71310118 7.04776232 0.617560904 0.000124637681 0.00055697446"></polygon>
                </g>
            </g>
        </g>
    </g>
</svg>