<?xml version="1.0" encoding="UTF-8"?>
<svg width="592px" height="133px" viewBox="0 0 592 133" version="1.1" xmlns="http://www.w3.org/2000/svg" xmlns:xlink="http://www.w3.org/1999/xlink">
    <!-- Generator: Sketch 3.8.1 (29687) - http://www.bohemiancoding.com/sketch -->
    <title>Assador:defrente</title>
    <desc>Created with Sketch.</desc>
    <defs></defs>
    <g id="IMAGENS-NO-SCROLL-HORIZONTAL" stroke="none" stroke-width="1" fill="none" fill-rule="evenodd">
        <g id="lago-heaven-" transform="translate(-1545.000000, -448.000000)" fill="#FD5F02">
            <g id="Assador:defrente" transform="translate(1545.000000, 448.000000)">
                <path d="M120,0 C120.020418,12.7053245 130.308937,23 143,23 C155.691063,23 165.979582,12.7053245 166,0 L120,0 Z" id="Fill-1"></path>
                <path d="M221,0 C221.020418,12.7053245 231.308937,23 244,23 C256.691063,23 266.979582,12.7053245 267,0 L221,0 Z" id="Fill-3"></path>
                <path d="M324,0 C324.020418,12.7053245 334.308937,23 347,23 C359.691063,23 369.979582,12.7053245 370,0 L324,0 Z" id="Fill-5"></path>
                <path d="M426,0 C426.020418,12.7053245 436.308937,23 449,23 C461.691063,23 471.979582,12.7053245 472,0 L426,0 Z" id="Fill-7"></path>
                <g id="Group-11">
                    <path d="M4.69533369,0 L51,0 L51,14 L4.69533369,14 C4.69533369,14 -5.86916711,6.54779169 4.69533369,0" id="Fill-9"></path>
                </g>
                <path d="M587.304666,0 L541,0 L541,14 L587.304666,14 C587.304666,14 597.869167,6.54779169 587.304666,0" id="Fill-12"></path>
                <path d="M491.591401,133 L95.7240624,133 C79.0118949,133 64.80076,120.802053 62.2656534,104.281101 L48,11.3467529 L50.2556997,11 L64.2215017,101.999832 C66.7566083,118.520784 80.9677433,130.718731 97.6799108,130.718731 L489.710515,130.718731 C505.922931,130.718731 519.859202,119.221134 522.944036,103.304718 L540.75793,11.3535967 L543,11.7847566 L524.824922,105.585987 C521.740088,121.504684 507.803816,133 491.591401,133" id="Fill-14"></path>
            </g>
        </g>
    </g>
</svg>