<?xml version="1.0" encoding="UTF-8"?>
<svg width="398px" height="509px" viewBox="0 0 398 509" version="1.1" xmlns="http://www.w3.org/2000/svg" xmlns:xlink="http://www.w3.org/1999/xlink">
    <!-- Generator: Sketch 3.8.1 (29687) - http://www.bohemiancoding.com/sketch -->
    <title>assador_heaven</title>
    <desc>Created with Sketch.</desc>
    <defs></defs>
    <g id="HEAVEN" stroke="none" stroke-width="1" fill="none" fill-rule="evenodd">
        <g id="Custom-Preset" transform="translate(-281.000000, -196.000000)">
            <g id="assador_heaven" transform="translate(281.000000, 196.000000)">
                <polygon id="Page-1" fill="#5EE8EF" points="386.691 0.997 330 5.999 330 503.277 397.827 508.999 397.999 0"></polygon>
                <path d="M71.4745799,128.189303 C74.1679272,119.675809 66.0440087,111.709708 57.6500804,114.606472 L16.8077297,128.702696 C13.1187214,129.97768 10.394998,133.132841 9.67947212,136.998592 C5.1568087,161.498686 -9.49122056,253.181941 9.42633797,325.533038 C10.3072448,328.898996 12.8115853,331.598562 16.0483272,332.825947 L56.8299258,348.278753 C65.3554838,351.508713 73.746037,343.345415 70.9075594,334.624524 C59.0676316,298.241578 42.195397,220.668147 71.4745799,128.189303 Z" id="Fill-1" fill="#5EE8F0"></path>
                <polygon id="Fill-5" fill="#5EE8F0" points="245 452 177 425.913433 177 62.170242 245 35"></polygon>
            </g>
        </g>
    </g>
</svg>