<?xml version="1.0" encoding="UTF-8"?>
<svg width="109px" height="63px" viewBox="0 0 109 63" version="1.1" xmlns="http://www.w3.org/2000/svg" xmlns:xlink="http://www.w3.org/1999/xlink">
    <!-- Generator: Sketch 3.8.1 (29687) - http://www.bohemiancoding.com/sketch -->
    <title>assador, de cima</title>
    <desc>Created with Sketch.</desc>
    <defs></defs>
    <g id="IMAGENS-NO-SCROLL-HORIZONTAL" stroke="none" stroke-width="1" fill="none" fill-rule="evenodd">
        <g id="lago-heaven-" transform="translate(-3278.000000, -482.000000)">
            <g id="assador,-de-cima" transform="translate(3278.000000, 482.000000)">
                <path d="M8.93432249,18.7510203 C9.2709909,17.700419 8.25550108,16.7173683 7.20626005,17.0748412 L2.10096621,18.8143753 C1.63984017,18.9717137 1.29937475,19.361074 1.20993401,19.8381242 C0.644601088,22.86154 -1.18640257,34.1756438 1.17829225,43.104077 C1.2884056,43.5194505 1.60144816,43.8525885 2.0060409,44.004053 L7.10374072,45.9109951 C8.16943548,46.3095859 9.21825462,45.3022002 8.86344493,44.2260051 C7.38345395,39.7361948 5.27442462,30.1633033 8.93432249,18.7510203 Z" id="Fill-1" fill="#FD5F02"></path>
                <polygon id="Fill-3" fill="#FD5F02" points="87 53.1475462 79 57 79 4 87 7.83547325"></polygon>
                <polygon id="Fill-5" fill="#FD5F02" points="30 56 22 52.7469988 22 7.38813569 30 4"></polygon>
                <path d="M100.065678,18.7510203 C99.7290059,17.700419 100.744508,16.7173683 101.793761,17.0748412 L106.899114,18.8143753 C107.360245,18.9717137 107.700715,19.361074 107.790157,19.8381242 C108.355496,22.86154 110.186521,34.1756438 107.821377,43.104077 C107.711684,43.5194505 107.398638,43.8525885 106.99404,44.004053 L101.896281,45.9109951 C100.830574,46.3095859 99.7817428,45.3022002 100.136557,44.2260051 C101.616565,39.7361948 103.725619,30.1633033 100.065678,18.7510203 Z" id="Fill-7" fill="#FD5F02"></path>
                <g id="Page-1" transform="translate(41.000000, 0.000000)" fill="#FD5F02">
                    <polygon points="6.66952941 0.123400786 0 0.742508841 0 62.2916523 7.97964706 62.9998762 7.99988235 0"></polygon>
                </g>
                <g id="Page-1" transform="translate(60.000000, 0.000000)">
                    <polygon id="Fill-1" fill="#7911FF" points="0.0201275362 63 7.88401159 62.291776 7.88401159 0.742632613 1.31114203 0.123524558 -4.63768115e-05 0"></polygon>
                    <polygon id="Fill-2" fill="#7911FF" points="0.0200811594 62.9999876 7.88408116 62.2917637 7.88408116 0.742620236 1.31121159 0.123512181 2.31884055e-05 0.000111394892"></polygon>
                    <polygon id="Fill-3" fill="#FD5F02" points="0.0200811594 62.9999876 7.88408116 62.2917637 7.88408116 0.742620236 1.31121159 0.123512181 2.31884055e-05 0.000111394892"></polygon>
                </g>
            </g>
        </g>
    </g>
</svg>