<?xml version="1.0" encoding="UTF-8"?>
<svg width="595px" height="343px" viewBox="0 0 595 343" version="1.1" xmlns="http://www.w3.org/2000/svg" xmlns:xlink="http://www.w3.org/1999/xlink">
    <!-- Generator: Sketch 3.8.1 (29687) - http://www.bohemiancoding.com/sketch -->
    <title>assador, de cima</title>
    <desc>Created with Sketch.</desc>
    <defs></defs>
    <g id="IMAGENS-NO-SCROLL-HORIZONTAL" stroke="none" stroke-width="1" fill="none" fill-rule="evenodd">
        <g id="lago-heaven-" transform="translate(-784.000000, -343.000000)">
            <g id="assador,-de-cima" transform="translate(784.000000, 343.000000)">
                <path d="M48.6424224,100.540042 C50.4753949,94.8160757 44.946617,89.4601443 39.2340825,91.4077558 L11.4385938,100.885217 C8.92801872,101.74244 7.07437362,103.863782 6.58741852,106.462883 C3.50949481,122.935287 -6.45930288,184.577646 6.41514667,233.222213 C7.01465271,235.485282 8.71899554,237.30031 10.9217783,238.12553 L38.6759217,248.515077 C44.4780376,250.686709 50.1882752,245.198194 48.2565335,239.334786 C40.1988048,214.873061 28.7163118,162.717308 48.6424224,100.540042 Z" id="Fill-1" fill="#FD5F02"></path>
                <polygon id="Fill-3" fill="#FD5F02" points="475 287.211287 429 308 429 22 475 42.6970821"></polygon>
                <polygon id="Fill-5" fill="#FD5F02" points="165 305 119 287.421282 119 42.308964 165 24"></polygon>
                <path d="M546.357582,101.540042 C544.524588,95.8160757 550.05343,90.4601443 555.766031,92.4077558 L583.561843,101.885217 C586.072447,102.74244 587.926114,104.863782 588.413074,107.462883 C591.491034,123.935287 601.459948,185.577646 588.583051,234.222213 C587.985835,236.485282 586.281473,238.30031 584.078664,239.12553 L556.324198,249.515077 C550.522015,251.686709 544.811711,246.198194 546.743475,240.334786 C554.801297,215.873061 566.283924,163.717308 546.357582,101.540042 Z" id="Fill-7" fill="#FD5F02"></path>
                <g id="Page-1" transform="translate(222.000000, 0.000000)" fill="#FD5F02">
                    <polygon points="38.3497941 0.671848723 0 4.04254813 0 339.14344 45.8829706 342.999326 45.9993235 0"></polygon>
                </g>
                <g id="Page-1" transform="translate(325.000000, 0.000000)">
                    <polygon id="Fill-1" fill="#7911FF" points="0.115733333 343 45.3330667 339.144114 45.3330667 4.043222 7.53906667 0.672522593 -0.000266666667 0"></polygon>
                    <polygon id="Fill-2" fill="#7911FF" points="0.115466667 342.999933 45.3334667 339.144047 45.3334667 4.04315462 7.53946667 0.672455206 0.000133333333 0.000606483301"></polygon>
                    <polygon id="Fill-3" fill="#FD5F02" points="0.115466667 342.999933 45.3334667 339.144047 45.3334667 4.04315462 7.53946667 0.672455206 0.000133333333 0.000606483301"></polygon>
                </g>
            </g>
        </g>
    </g>
</svg>