<?xml version="1.0" encoding="UTF-8"?>
<svg width="111px" height="25px" viewBox="0 0 111 25" version="1.1" xmlns="http://www.w3.org/2000/svg" xmlns:xlink="http://www.w3.org/1999/xlink">
    <!-- Generator: Sketch 3.8.1 (29687) - http://www.bohemiancoding.com/sketch -->
    <title>Assador:defrente</title>
    <desc>Created with Sketch.</desc>
    <defs></defs>
    <g id="IMAGENS-NO-SCROLL-HORIZONTAL" stroke="none" stroke-width="1" fill="none" fill-rule="evenodd">
        <g id="lago-heaven-" transform="translate(-3553.000000, -502.000000)" fill="#FD5F02">
            <g id="Assador:defrente" transform="translate(3553.000000, 502.000000)">
                <path d="M22,0 C22.0039949,2.20962165 24.0169659,4 26.5,4 C28.9830341,4 30.9960051,2.20962165 31,0 L22,0 Z" id="Fill-1"></path>
                <path d="M42,0 C42.0039949,2.20962165 44.0169659,4 46.5,4 C48.9830341,4 50.9960051,2.20962165 51,0 L42,0 Z" id="Fill-3"></path>
                <path d="M61,0 C61.0039949,2.20962165 63.0169659,4 65.5,4 C67.9830341,4 69.9960051,2.20962165 70,0 L61,0 Z" id="Fill-5"></path>
                <path d="M80,0 C80.0039949,2.20962165 82.0169659,4 84.5,4 C86.9830341,4 88.9960051,2.20962165 89,0 L80,0 Z" id="Fill-7"></path>
                <g id="Group-11">
                    <path d="M0.920653664,0 L10,0 L10,3 L0.920653664,3 C0.920653664,3 -1.15081708,1.40309822 0.920653664,0" id="Fill-9"></path>
                </g>
                <path d="M110.079346,0 L101,0 L101,3 L110.079346,3 C110.079346,3 112.150817,1.40309822 110.079346,0" id="Fill-12"></path>
                <path d="M92.3414147,25 L17.966339,25 C14.8264772,25 12.1565064,22.7003871 11.6802137,19.5857813 L9,2.06537145 L9.42379812,2 L12.0476761,19.155706 C12.5239688,22.2703117 15.1939396,24.5699246 18.3338014,24.5699246 L91.9880362,24.5699246 C95.0340052,24.5699246 97.6523349,22.4023448 98.2319098,19.4017091 L101.578763,2.06666168 L102,2.14794592 L98.5852883,19.8317844 C98.0057134,22.8328503 95.3873837,25 92.3414147,25" id="Fill-14"></path>
            </g>
        </g>
    </g>
</svg>