<?xml version="1.0" encoding="UTF-8"?>
<svg width="552px" height="124px" viewBox="0 0 552 124" version="1.1" xmlns="http://www.w3.org/2000/svg" xmlns:xlink="http://www.w3.org/1999/xlink">
    <!-- Generator: Sketch 3.8.1 (29687) - http://www.bohemiancoding.com/sketch -->
    <title>Assador:defrente</title>
    <desc>Created with Sketch.</desc>
    <defs></defs>
    <g id="IMAGENS-SCROL-HORIZONTAL" stroke="none" stroke-width="1" fill="none" fill-rule="evenodd">
        <g id="banheira_-heaven-" transform="translate(-3612.000000, -451.000000)" fill="#FD5F02">
            <g id="Assador:defrente" transform="translate(3612.500000, 451.500000)">
                <path d="M111,0 C111.01953,11.0481083 120.860722,20 133,20 C145.139278,20 154.98047,11.0481083 155,0 L111,0 Z" id="Fill-1"></path>
                <path d="M209,0 C209.01953,11.0481083 218.860722,20 231,20 C243.139278,20 252.98047,11.0481083 253,0 L209,0 Z" id="Fill-3"></path>
                <path d="M303,0 C303.01953,11.0481083 312.860722,20 325,20 C337.139278,20 346.98047,11.0481083 347,0 L303,0 Z" id="Fill-5"></path>
                <path d="M397,0 C397.01953,11.0481083 406.860722,20 419,20 C431.139278,20 440.98047,11.0481083 441,0 L397,0 Z" id="Fill-7"></path>
                <g id="Group-11">
                    <path d="M4.49849534,0 L48.8619718,0 L48.8619718,14.9650146 L4.49849534,14.9650146 C4.49849534,14.9650146 -5.62311918,6.99912844 4.49849534,0" id="Fill-9"></path>
                </g>
                <path d="M546.488797,0 L502,0 L502,15 L546.488797,15 C546.488797,15 556.639004,7.0154911 546.488797,0" id="Fill-12"></path>
                <path d="M457.330208,123 L90.2532215,123 C74.7564844,123 61.5788865,111.701902 59.2281513,96.3997083 L46,10.3211728 L48.0916488,10 L61.0417562,94.2867294 C63.3924913,109.588923 76.5700892,120.887021 92.0668264,120.887021 L455.586114,120.887021 C470.619445,120.887021 483.542169,110.237607 486.402652,95.4953533 L502.92099,10.3275117 L505,10.7268648 L488.146745,97.6083322 C485.286263,112.352699 472.363539,123 457.330208,123" id="Fill-14"></path>
            </g>
        </g>
    </g>
</svg>