<?xml version="1.0" encoding="UTF-8"?>
<svg width="883px" height="509px" viewBox="0 0 883 509" version="1.1" xmlns="http://www.w3.org/2000/svg" xmlns:xlink="http://www.w3.org/1999/xlink">
    <!-- Generator: Sketch 3.8.1 (29687) - http://www.bohemiancoding.com/sketch -->
    <title>Page 1</title>
    <desc>Created with Sketch.</desc>
    <defs></defs>
    <g id="home" stroke="none" stroke-width="1" fill="none" fill-rule="evenodd">
        <g id="Custom-Preset" transform="translate(-281.000000, -196.000000)">
            <g id="Page-1" transform="translate(281.000000, 196.000000)">
                <g transform="translate(330.000000, 0.000000)" fill="#5EE8EF">
                    <polygon points="56.691 0.997 0 5.999 0 503.277 67.827 508.999 67.999 0"></polygon>
                </g>
                <path d="M71.4745799,128.189303 C74.1679272,119.675809 66.0440087,111.709708 57.6500804,114.606472 L16.8077297,128.702696 C13.1187214,129.97768 10.394998,133.132841 9.67947212,136.998592 C5.1568087,161.498686 -9.49122056,253.181941 9.42633797,325.533038 C10.3072448,328.898996 12.8115853,331.598562 16.0483272,332.825947 L56.8299258,348.278753 C65.3554838,351.508713 73.746037,343.345415 70.9075594,334.624524 C59.0676316,298.241578 42.195397,220.668147 71.4745799,128.189303 Z" id="Fill-1" fill="#5EE8F0"></path>
                <polygon id="Fill-5" fill="#5EE8F0" points="245 452 177 425.913433 177 62.170242 245 35"></polygon>
                <path d="M811.525426,127.189303 C808.832048,118.675809 816.956061,110.709708 825.350086,113.606472 L866.192912,127.702696 C869.881963,128.97768 872.605718,132.132841 873.321252,135.998592 C877.843968,160.498686 892.492168,252.181941 873.571014,324.533038 C872.693472,327.898996 870.189103,330.598562 866.952323,331.825947 L826.170251,347.278753 C817.644593,350.508713 809.253943,342.345415 812.092453,333.624524 C823.932519,297.241578 840.804949,219.668147 811.525426,127.189303 Z" id="Fill-7" fill="#7911FF"></path>
                <polygon id="Fill-5" fill="#7911FF" transform="translate(671.000000, 243.500000) scale(-1, 1) translate(-671.000000, -243.500000) " points="705 452 637 425.913433 637 62.170242 705 35"></polygon>
                <g transform="translate(483.000000, 0.000000)" fill="#7911FF">
                    <polygon id="Fill-1" points="0.1736 509 67.9996 503.278 67.9996 6 11.3086 0.998 -0.0004 0"></polygon>
                    <polygon id="Fill-2" points="0.1732 508.9999 68.0002 503.2779 68.0002 5.9999 11.3092 0.9979 0.0002 0.0009"></polygon>
                    <polygon id="Fill-3" points="0.1732 508.9999 68.0002 503.2779 68.0002 5.9999 11.3092 0.9979 0.0002 0.0009"></polygon>
                </g>
            </g>
        </g>
    </g>
</svg>